<svg xmlns="http://www.w3.org/2000/svg" width="512" height="512" viewBox="0 0 512 512">
  <path fill-rule="evenodd" d="M256,0 C397.157639,0 512,114.836593 512,256 C512,397.157639 397.157639,512 256,512 C114.842361,512 5.68434189e-14,397.157639 5.68434189e-14,256 C5.68434189e-14,114.836593 114.842361,0 256,0 Z M256,11.5367283 C121.204867,11.5367283 11.5367283,121.199099 11.5367283,256 C11.5367283,390.795133 121.204867,500.463272 256,500.463272 C390.800901,500.463272 500.463272,390.795133 500.463272,256 C500.463272,121.199099 390.800901,11.5367283 256,11.5367283 Z M98.4423254,302.968905 C103.68,310.473547 103.737684,317.08986 103.772294,322.41406 C103.818441,327.761334 103.841514,330.7032 108.294691,334.521857 C112.153727,337.832898 115.516683,337.538711 121.636918,336.684993 C128.074412,335.767823 136.092438,334.654529 144.093159,341.513114 C152.088112,348.371699 152.191942,356.470482 152.284236,362.977197 C152.364993,369.143578 152.584191,372.518071 156.448995,375.834881 C160.319567,379.157458 163.69406,378.863272 169.814295,378.015322 C176.263326,377.121226 184.28712,375.990626 192.287841,382.860748 C200.288562,389.73087 200.40393,397.829653 200.496224,404.336368 C200.582749,410.514286 200.807715,413.894547 204.684056,417.217125 C207.101,419.287968 207.377882,422.933574 205.301271,425.350518 C204.159135,426.68301 202.543993,427.363677 200.923082,427.363677 C199.59059,427.363677 198.258098,426.907977 197.167877,425.973502 C189.167156,419.10338 189.051789,411.004597 188.959495,404.497882 C188.87297,398.319964 188.648004,394.939703 184.771663,391.617125 C180.901091,388.294547 177.532366,388.582965 171.412132,389.436683 C164.968869,390.33078 156.939306,391.461379 148.938585,384.591257 C140.937864,377.732672 140.834033,369.633889 140.747508,363.127174 C140.660982,356.960793 140.441785,353.5863 136.576981,350.269491 C132.717945,346.952681 129.343452,347.252636 123.240523,348.106354 C116.791492,349.017756 108.785002,350.136818 100.784281,343.278233 C92.3451645,336.038936 92.2874808,328.534295 92.2413339,322.500586 C92.2067237,318.018567 92.1721136,314.136458 88.9822082,309.567913 C87.1594051,306.960613 87.7996936,303.361154 90.4127625,301.538351 C93.0258315,299.721316 96.6252907,300.350068 98.4423254,302.968905 Z M260.056314,396.271041 C261.152303,397.309347 261.786823,398.809121 261.786823,400.36658 C261.786823,401.866354 261.152303,403.366129 260.056314,404.404434 C259.018008,405.500424 257.518233,406.134944 256.018459,406.134944 C254.461,406.134944 253.018909,405.500424 251.92292,404.404434 C250.826931,403.366129 250.250095,401.866354 250.250095,400.36658 C250.250095,398.809121 250.826931,397.309347 251.92292,396.271041 C252.442073,395.751888 253.076593,395.290419 253.768797,395.002001 C255.903091,394.136746 258.441172,394.655899 260.056314,396.271041 Z M410.738675,203.476737 C425.009608,209.389311 436.702082,224.58895 428.672519,243.993727 C424.784642,253.373087 417.089644,258.05123 411.996178,261.143073 C411.655845,261.350735 411.292438,261.569932 410.923263,261.800667 C411.477026,261.898729 412.042325,261.985255 412.55571,262.060243 C415.716773,262.550554 419.645029,263.156233 423.654042,264.817521 C432.000865,268.272772 436.084867,277.629058 432.762289,285.670158 C428.222587,296.606976 415.02457,298.112519 405.391402,299.214277 C403.464768,299.433475 400.949761,299.721893 398.959676,300.091068 C399.813393,300.321803 400.765174,300.581379 401.584281,300.806345 C404.12813,301.492781 407.006543,302.277278 410.127228,303.569392 C418.468283,307.024642 422.552285,316.37516 419.229707,324.41626 C414.736151,335.249247 401.013213,337.100892 389.995638,338.583362 C389.291897,338.675656 388.518936,338.779486 387.722902,338.894854 C389.153457,339.333249 390.687841,339.869707 392.291447,340.533069 C396.433132,342.246273 399.634574,345.401568 401.3074,349.410581 C402.922542,353.263849 402.951384,357.6305 401.393925,361.385705 C396.202397,373.914592 380.391311,376.550735 365.09361,379.094583 C354.740998,380.818122 343.019731,382.77164 340.693793,387.665493 L340.601136,387.874033 L336.321009,398.210942 C335.40384,400.431762 333.258008,401.775791 330.991041,401.775791 C330.25269,401.775791 329.508571,401.631582 328.787526,401.331627 C325.910074,400.143481 324.511301,396.899476 325.578565,394.008977 L325.661073,393.798143 L329.941199,383.461235 C332.035115,378.408148 325.020784,368.59616 318.837098,359.937846 C309.821145,347.322434 300.499468,334.274394 305.690996,321.739739 C309.013574,313.698639 318.519838,309.978044 326.872429,313.433294 C328.481803,314.096656 329.93543,314.800397 331.262154,315.504137 C330.777612,314.863849 330.304606,314.246634 329.877747,313.681334 C323.134529,304.838432 314.741559,293.832393 319.21781,282.999405 C322.551924,274.952537 332.035115,271.226174 340.405011,274.687192 C343.519928,275.973538 346.109923,277.461776 348.394196,278.771194 C349.115241,279.180748 349.940117,279.653754 350.724615,280.074845 C349.582479,278.419324 348.02502,276.463849 346.825201,274.952537 C340.791492,267.367138 332.531194,256.972546 337.053592,246.035728 C338.605282,242.274754 341.71443,239.205985 345.573466,237.625453 C349.599784,235.975701 354.093339,236.004543 358.235025,237.723515 C362.238269,239.379036 365.451248,241.72676 368.029707,243.618783 C368.445029,243.924507 368.906498,244.259072 369.367968,244.593637 C369.269905,244.166778 369.166075,243.751456 369.079549,243.370744 C367.660532,237.579306 365.526237,228.828698 369.414114,219.443569 C374.490275,207.185795 383.281262,202.882596 389.764903,201.428968 C399.138495,199.317747 407.554538,202.16155 410.738675,203.476737 Z M392.285678,212.683046 C386.655755,213.946318 382.664047,217.603461 380.074051,223.862136 C377.628265,229.757404 379.035746,235.537305 380.281712,240.630771 C381.539216,245.787688 382.964002,251.619504 378.3147,255.588139 C371.456115,260.422028 365.537774,256.089986 361.217269,252.928923 C358.92146,251.244561 356.544894,249.508283 353.816458,248.377684 C352.149401,247.68548 350.805372,247.956593 349.957422,248.296927 C348.919117,248.723785 348.100009,249.508283 347.70776,250.442758 C345.786895,255.103596 351.370671,262.129464 355.858459,267.776692 C361.124975,274.404543 368.341199,283.478179 360.288562,290.186787 C354.093339,295.332168 347.748139,291.698098 342.660442,288.779306 C340.578062,287.585255 338.426462,286.350825 335.986444,285.341361 C333.229166,284.199225 330.656476,285.52018 329.877747,287.412204 C327.933808,292.107652 334.359766,300.535232 339.055214,306.690077 C344.194826,313.433294 348.255755,318.763263 347.32128,324.329734 C346.894421,326.844741 345.498477,328.955962 343.271888,330.426895 C338.622587,333.507201 334.059811,330.65763 330.391131,328.361821 C328.193384,326.994718 325.701451,325.43726 322.45963,324.093231 C319.696584,322.945327 317.129662,324.27205 316.350933,326.158306 C313.605192,332.774619 321.36941,343.642217 328.222226,353.229238 L329.186126,354.579641 C333.678278,360.889318 338.038444,367.302509 340.278107,373.580027 C346.732907,370.522794 355.016278,369.080703 363.195818,367.713601 C374.819072,365.781199 387.994015,363.58922 390.733988,356.967138 C391.126237,356.026895 391.097395,354.896296 390.664768,353.85799 C390.312898,353.021577 389.545705,351.88521 387.87288,351.193006 C384.631059,349.848977 381.76995,349.185615 379.243407,348.60301 C375.032501,347.628157 369.789058,346.411032 368.681532,340.948391 C368.145074,338.335322 368.646922,335.854926 370.129392,333.778315 C373.405822,329.17516 380.04521,328.281064 388.449716,327.150464 C396.115872,326.117927 406.614295,324.704678 408.56977,319.997693 C409.348499,318.117206 408.477476,315.371465 405.708662,314.22356 C403.268644,313.214096 400.874772,312.56804 398.561658,311.93352 C392.897125,310.399135 385.842416,308.484038 385.104065,300.47178 C384.152285,290.025273 395.671708,288.710086 404.087751,287.746769 C411.246291,286.933429 420.164182,285.912429 422.096584,281.251591 C422.881082,279.371104 422.00429,276.625363 419.235475,275.477458 C416.512808,274.346859 413.599784,273.896927 410.79059,273.458531 C405.501,272.645192 398.255935,271.520361 396.888833,263.808058 C396.3545,257.396066 401.121017,254.265552 405.524213,251.576658 L406.002848,251.284939 C410.484867,248.562271 415.572564,245.470428 418.012582,239.57516 C425.090365,222.489265 408.264047,214.938477 406.325877,214.136674 C404.641514,213.438702 398.653952,211.264029 392.285678,212.683046 Z M280.377107,219.092276 C283.561244,219.092276 286.145471,221.676503 286.145471,224.86064 C286.145471,228.044777 283.561244,230.629004 280.377107,230.629004 L280.377107,230.629004 L261.768364,230.629004 L261.768364,287.135899 C261.768364,290.325804 259.184137,292.904263 256,292.904263 C252.815863,292.904263 250.231636,290.325804 250.231636,287.135899 L250.231636,287.135899 L250.231636,230.629004 L231.622893,230.629004 C228.438756,230.629004 225.854529,228.044777 225.854529,224.86064 C225.854529,221.676503 228.438756,219.092276 231.622893,219.092276 L231.622893,219.092276 Z M114.98311,268.445246 C115.675313,268.733664 116.309833,269.137449 116.828986,269.656602 C117.117404,269.94502 117.348139,270.233438 117.578873,270.57954 C117.751924,270.867959 117.982659,271.21406 118.098026,271.560162 C118.271077,271.906264 118.328761,272.252366 118.444128,272.656151 C118.501812,273.002253 118.559495,273.406039 118.559495,273.752141 C118.559495,275.251915 117.924975,276.75169 116.828986,277.847679 C116.309833,278.366832 115.675313,278.770617 114.98311,279.059036 C114.290906,279.405137 113.541018,279.520505 112.791131,279.520505 C112.041244,279.520505 111.291356,279.405137 110.541469,279.059036 C109.849265,278.770617 109.214745,278.366832 108.695593,277.847679 C107.599603,276.75169 107.022767,275.251915 107.022767,273.752141 C107.022767,273.406039 107.022767,273.002253 107.138134,272.656151 C107.195818,272.252366 107.311185,271.906264 107.426553,271.560162 C107.599603,271.21406 107.772654,270.867959 108.003389,270.57954 C108.17644,270.233438 108.407174,269.94502 108.695593,269.656602 C109.214745,269.137449 109.849265,268.733664 110.541469,268.445246 C111.98356,267.868409 113.598702,267.868409 114.98311,268.445246 Z M108.963822,170.518612 C118.198973,171.747274 126.315061,177.054169 131.270086,184.714556 C135.480991,181.616945 140.453321,179.51726 145.800595,178.807751 C147.865669,178.53087 149.890365,179.378819 151.1421,181.022803 C157.960306,189.929157 159.53507,201.881208 155.254944,212.212348 C151.234394,221.914736 142.529932,228.911762 132.273781,230.959531 C127.05918,234.391708 121.031239,236.260658 114.922542,236.260658 C110.861613,236.260658 106.78338,235.47616 102.935881,233.884092 C92.5989725,229.603966 85.2616133,220.040018 83.7906805,208.918612 C83.513799,206.870843 84.3617485,204.828842 85.9999639,203.577107 C89.5475079,200.865976 93.573826,199.020099 97.7905002,198.004867 C96.0657594,189.236954 98.0789184,179.978729 103.622316,172.733664 C104.87982,171.08968 106.933357,170.235962 108.963822,170.518612 Z M95.996539,210.845246 C97.7674268,216.388644 101.903344,220.968725 107.354448,223.224155 C111.934529,225.127715 117.010689,225.162325 121.596539,223.552952 C120.165985,220.541866 119.162289,217.363497 118.729662,214.098603 C116.981848,212.454619 115.037909,211.058675 112.77671,210.118432 C107.331374,207.851465 101.164993,208.18603 95.996539,210.845246 Z M143.873961,191.01361 C138.330563,192.790266 133.744714,196.920415 131.489283,202.371519 C129.233853,207.816854 129.551113,213.977467 132.221866,219.15169 C137.759495,217.375034 142.339576,213.244885 144.600775,207.799549 C146.856205,202.354214 146.538945,196.187832 143.873961,191.01361 Z M110.896224,182.72447 C108.565804,187.252636 108.150482,192.513384 109.557963,197.404957 C112.153727,197.768364 114.720649,198.437494 117.195277,199.458495 C118.118215,199.844975 119.012312,200.289139 119.883335,200.756377 C120.171753,199.816133 120.454403,198.870122 120.829347,197.952952 C121.45233,196.453177 122.219522,195.039928 123.050167,193.672826 C120.731284,188.440919 116.289644,184.45498 110.896224,182.72447 Z M274.825633,78.485516 C283.639694,82.1368905 290.509815,89.0070122 294.16119,97.8268409 C297.748003,106.477058 297.81698,115.981764 294.368121,124.664846 L294.16119,125.174655 L292.176872,129.968166 C292.36146,130.250816 292.603731,130.487319 292.730635,130.79881 C293.319009,132.212059 293.319009,133.804128 292.730635,135.217377 C288.819685,144.654421 281.482325,151.945633 272.062587,155.746985 C267.470969,157.604398 262.63708,158.533105 257.791654,158.533105 C254.497918,158.533105 251.204182,158.060099 247.962361,157.206381 C241.103776,168.200883 227.473132,176.397729 213.121442,176.397729 C208.477909,176.397729 203.753619,175.538242 199.156233,173.634682 C196.214367,172.411789 194.818423,169.037296 196.035548,166.09543 C197.252672,163.153565 200.615629,161.757621 203.574799,162.974745 C216.945868,168.523912 230.755331,161.250005 237.181289,152.505164 C230.507292,148.346174 225.240775,142.370149 222.143164,135.073168 C218.174529,125.716881 218.139919,115.368436 222.05087,105.937161 C222.761165,104.213731 224.23882,103.110496 225.916915,102.672608 L226.157945,102.614583 L228.136494,97.8268409 C231.787868,89.0070122 238.65799,82.1426589 247.477819,78.485516 C256.291879,74.8341415 266.000036,74.8341415 274.825633,78.485516 Z M357.07616,147.077711 C357.485714,147.193078 357.826048,147.308445 358.177918,147.423813 C358.518251,147.596863 358.870122,147.769914 359.15854,147.942965 C359.498873,148.1737 359.787292,148.404434 360.018026,148.692853 C361.119784,149.731158 361.754304,151.230933 361.754304,152.730708 C361.754304,153.480595 361.581253,154.230482 361.292835,154.98037 C360.998648,155.672573 360.600631,156.307093 360.018026,156.826246 C358.979721,157.922235 357.485714,158.499072 355.98594,158.499072 C354.422713,158.499072 352.928707,157.922235 351.890401,156.826246 C351.36548,156.307093 350.904011,155.672573 350.615593,154.98037 C350.327174,154.230482 350.217575,153.480595 350.217575,152.730708 C350.217575,151.98082 350.327174,151.230933 350.615593,150.538729 C350.904011,149.846525 351.36548,149.212005 351.890401,148.692853 C353.211356,147.308445 355.230284,146.731609 357.07616,147.077711 Z M231.07836,115.922199 C230.213105,120.831077 230.778405,125.878396 232.76849,130.562307 C235.52,137.051717 240.688454,142.133646 247.322073,144.885155 C253.96146,147.630897 261.212294,147.694349 267.736314,145.052438 C272.292128,143.208948 276.148879,140.193185 278.984666,136.311473 L279.284579,135.892276 L231.07836,115.922199 Z M173.358954,133.982947 C174.051158,134.271365 174.685678,134.675151 175.262515,135.194304 C176.30082,136.290293 176.93534,137.790068 176.93534,139.289842 C176.93534,140.789617 176.30082,142.289392 175.262515,143.385381 C174.166525,144.423686 172.666751,145.058206 171.166976,145.058206 C169.609518,145.058206 168.167427,144.423686 167.071438,143.385381 C165.975448,142.289392 165.398612,140.789617 165.398612,139.289842 C165.398612,137.790068 165.975448,136.290293 167.071438,135.194304 C168.68658,133.636845 171.22466,133.060009 173.358954,133.982947 Z M251.890617,89.1454529 C246.059204,91.5625316 241.48802,96.0543122 238.972597,101.830639 L238.796431,102.245408 L237.244741,105.989076 L281.955331,124.505525 L283.501253,120.761857 C288.606255,108.434863 282.739829,94.2504552 270.407066,89.1454529 C264.436809,86.6708247 257.860874,86.6708247 251.890617,89.1454529 Z"/>
  </svg>
